{
	"patcher" : 	{
		"fileversion" : 1,
		"rect" : [ 323.0, 164.0, 627.0, 459.0 ],
		"bglocked" : 0,
		"defrect" : [ 323.0, 164.0, 627.0, 459.0 ],
		"openrect" : [ 0.0, 0.0, 0.0, 0.0 ],
		"openinpresentation" : 0,
		"default_fontsize" : 11.1,
		"default_fontface" : 0,
		"default_fontname" : "Verdana",
		"gridonopen" : 0,
		"gridsize" : [ 15.0, 15.0 ],
		"gridsnaponopen" : 0,
		"toolbarvisible" : 1,
		"boxanimatetime" : 200,
		"imprint" : 0,
		"metadata" : [  ],
		"boxes" : [ 			{
				"box" : 				{
					"maxclass" : "comment",
					"text" : "signal goes from min to max",
					"patching_rect" : [ 409.0, 362.0, 139.0, 17.0 ],
					"id" : "obj-1",
					"fontname" : "Verdana",
					"fontsize" : 9.0,
					"numinlets" : 1,
					"numoutlets" : 0
				}

			}
, 			{
				"box" : 				{
					"maxclass" : "outlet",
					"patching_rect" : [ 399.0, 381.0, 15.0, 15.0 ],
					"id" : "obj-2",
					"numinlets" : 1,
					"numoutlets" : 0,
					"comment" : ""
				}

			}
, 			{
				"box" : 				{
					"maxclass" : "comment",
					"text" : "Max",
					"patching_rect" : [ 482.0, 70.0, 29.0, 17.0 ],
					"id" : "obj-3",
					"fontname" : "Verdana",
					"fontsize" : 9.0,
					"numinlets" : 1,
					"numoutlets" : 0
				}

			}
, 			{
				"box" : 				{
					"maxclass" : "comment",
					"text" : "Min",
					"patching_rect" : [ 448.0, 70.0, 24.0, 17.0 ],
					"id" : "obj-4",
					"fontname" : "Verdana",
					"fontsize" : 9.0,
					"numinlets" : 1,
					"numoutlets" : 0
				}

			}
, 			{
				"box" : 				{
					"maxclass" : "inlet",
					"patching_rect" : [ 484.0, 85.0, 15.0, 15.0 ],
					"outlettype" : [ "" ],
					"id" : "obj-5",
					"numinlets" : 0,
					"numoutlets" : 1,
					"comment" : "max"
				}

			}
, 			{
				"box" : 				{
					"maxclass" : "inlet",
					"patching_rect" : [ 450.0, 84.0, 15.0, 15.0 ],
					"outlettype" : [ "" ],
					"id" : "obj-6",
					"numinlets" : 0,
					"numoutlets" : 1,
					"comment" : "min"
				}

			}
, 			{
				"box" : 				{
					"maxclass" : "comment",
					"text" : "Width",
					"patching_rect" : [ 557.0, 69.0, 38.0, 17.0 ],
					"id" : "obj-7",
					"fontname" : "Verdana",
					"fontsize" : 9.0,
					"numinlets" : 1,
					"numoutlets" : 0
				}

			}
, 			{
				"box" : 				{
					"maxclass" : "comment",
					"text" : "Freq",
					"patching_rect" : [ 413.0, 70.0, 31.0, 17.0 ],
					"id" : "obj-8",
					"fontname" : "Verdana",
					"fontsize" : 9.0,
					"numinlets" : 1,
					"numoutlets" : 0
				}

			}
, 			{
				"box" : 				{
					"maxclass" : "inlet",
					"patching_rect" : [ 563.0, 86.0, 15.0, 15.0 ],
					"outlettype" : [ "" ],
					"id" : "obj-9",
					"numinlets" : 0,
					"numoutlets" : 1,
					"comment" : "ramp/rect width (0-1)"
				}

			}
, 			{
				"box" : 				{
					"maxclass" : "newobj",
					"text" : "unpack 0. 0. 0. shape 0.",
					"patching_rect" : [ 26.0, 59.0, 119.0, 17.0 ],
					"outlettype" : [ "float", "float", "float", "", "float" ],
					"id" : "obj-10",
					"fontname" : "Verdana",
					"fontsize" : 9.0,
					"numinlets" : 1,
					"numoutlets" : 5
				}

			}
, 			{
				"box" : 				{
					"maxclass" : "newobj",
					"text" : "print \"ERROR in ajm.lfo. Invalid waveform shape\"",
					"linecount" : 2,
					"patching_rect" : [ 291.0, 124.0, 122.0, 28.0 ],
					"id" : "obj-11",
					"fontname" : "Verdana",
					"fontsize" : 9.0,
					"numinlets" : 1,
					"numoutlets" : 0
				}

			}
, 			{
				"box" : 				{
					"maxclass" : "message",
					"text" : "3",
					"patching_rect" : [ 265.0, 123.0, 16.0, 15.0 ],
					"outlettype" : [ "" ],
					"id" : "obj-12",
					"fontname" : "Verdana",
					"fontsize" : 9.0,
					"numinlets" : 2,
					"numoutlets" : 1
				}

			}
, 			{
				"box" : 				{
					"maxclass" : "message",
					"text" : "2",
					"patching_rect" : [ 239.0, 123.0, 16.0, 15.0 ],
					"outlettype" : [ "" ],
					"id" : "obj-13",
					"fontname" : "Verdana",
					"fontsize" : 9.0,
					"numinlets" : 2,
					"numoutlets" : 1
				}

			}
, 			{
				"box" : 				{
					"maxclass" : "message",
					"text" : "1",
					"patching_rect" : [ 213.0, 123.0, 16.0, 15.0 ],
					"outlettype" : [ "" ],
					"id" : "obj-14",
					"fontname" : "Verdana",
					"fontsize" : 9.0,
					"numinlets" : 2,
					"numoutlets" : 1
				}

			}
, 			{
				"box" : 				{
					"maxclass" : "message",
					"text" : "0",
					"patching_rect" : [ 187.0, 122.0, 16.0, 15.0 ],
					"outlettype" : [ "" ],
					"id" : "obj-15",
					"fontname" : "Verdana",
					"fontsize" : 9.0,
					"numinlets" : 2,
					"numoutlets" : 1
				}

			}
, 			{
				"box" : 				{
					"maxclass" : "newobj",
					"text" : "route int sine ramp rect rand",
					"patching_rect" : [ 161.0, 97.0, 141.0, 17.0 ],
					"outlettype" : [ "", "", "", "", "", "" ],
					"id" : "obj-16",
					"fontname" : "Verdana",
					"fontsize" : 9.0,
					"numinlets" : 1,
					"numoutlets" : 6
				}

			}
, 			{
				"box" : 				{
					"maxclass" : "newobj",
					"text" : "patcherargs 1. 0. 1. sine 0.5",
					"patching_rect" : [ 26.0, 35.0, 139.0, 17.0 ],
					"outlettype" : [ "", "" ],
					"id" : "obj-17",
					"fontname" : "Verdana",
					"fontsize" : 9.0,
					"numinlets" : 1,
					"numoutlets" : 2
				}

			}
, 			{
				"box" : 				{
					"maxclass" : "newobj",
					"text" : "== 0",
					"patching_rect" : [ 293.0, 188.0, 32.0, 17.0 ],
					"outlettype" : [ "int" ],
					"id" : "obj-18",
					"fontname" : "Verdana",
					"fontsize" : 9.0,
					"numinlets" : 2,
					"numoutlets" : 1
				}

			}
, 			{
				"box" : 				{
					"maxclass" : "newobj",
					"text" : "== 0",
					"patching_rect" : [ 249.0, 188.0, 32.0, 17.0 ],
					"outlettype" : [ "int" ],
					"id" : "obj-19",
					"fontname" : "Verdana",
					"fontsize" : 9.0,
					"numinlets" : 2,
					"numoutlets" : 1
				}

			}
, 			{
				"box" : 				{
					"maxclass" : "newobj",
					"text" : "== 0",
					"patching_rect" : [ 205.0, 188.0, 32.0, 17.0 ],
					"outlettype" : [ "int" ],
					"id" : "obj-20",
					"fontname" : "Verdana",
					"fontsize" : 9.0,
					"numinlets" : 2,
					"numoutlets" : 1
				}

			}
, 			{
				"box" : 				{
					"maxclass" : "newobj",
					"text" : "== 0",
					"patching_rect" : [ 161.0, 188.0, 32.0, 17.0 ],
					"outlettype" : [ "int" ],
					"id" : "obj-21",
					"fontname" : "Verdana",
					"fontsize" : 9.0,
					"numinlets" : 2,
					"numoutlets" : 1
				}

			}
, 			{
				"box" : 				{
					"maxclass" : "newobj",
					"text" : "decode 4",
					"patching_rect" : [ 161.0, 160.0, 144.0, 17.0 ],
					"outlettype" : [ "int", "int", "int", "int" ],
					"id" : "obj-22",
					"fontname" : "Verdana",
					"fontsize" : 9.0,
					"numinlets" : 3,
					"numoutlets" : 4
				}

			}
, 			{
				"box" : 				{
					"maxclass" : "newobj",
					"text" : "mute~",
					"patching_rect" : [ 161.0, 214.0, 39.0, 17.0 ],
					"outlettype" : [ "" ],
					"id" : "obj-23",
					"fontname" : "Verdana",
					"fontsize" : 9.0,
					"numinlets" : 1,
					"numoutlets" : 1
				}

			}
, 			{
				"box" : 				{
					"maxclass" : "newobj",
					"text" : "mute~",
					"patching_rect" : [ 205.0, 213.0, 39.0, 17.0 ],
					"outlettype" : [ "" ],
					"id" : "obj-24",
					"fontname" : "Verdana",
					"fontsize" : 9.0,
					"numinlets" : 1,
					"numoutlets" : 1
				}

			}
, 			{
				"box" : 				{
					"maxclass" : "newobj",
					"text" : "mute~",
					"patching_rect" : [ 249.0, 213.0, 39.0, 17.0 ],
					"outlettype" : [ "" ],
					"id" : "obj-25",
					"fontname" : "Verdana",
					"fontsize" : 9.0,
					"numinlets" : 1,
					"numoutlets" : 1
				}

			}
, 			{
				"box" : 				{
					"maxclass" : "newobj",
					"text" : "p rand",
					"patching_rect" : [ 328.0, 268.0, 38.0, 17.0 ],
					"outlettype" : [ "signal" ],
					"id" : "obj-26",
					"fontname" : "Verdana",
					"fontsize" : 9.0,
					"numinlets" : 1,
					"numoutlets" : 1,
					"patcher" : 					{
						"fileversion" : 1,
						"rect" : [ 10.0, 59.0, 157.0, 241.0 ],
						"bglocked" : 0,
						"defrect" : [ 10.0, 59.0, 157.0, 241.0 ],
						"openrect" : [ 0.0, 0.0, 0.0, 0.0 ],
						"openinpresentation" : 0,
						"default_fontsize" : 11.1,
						"default_fontface" : 0,
						"default_fontname" : "Verdana",
						"gridonopen" : 0,
						"gridsize" : [ 15.0, 15.0 ],
						"gridsnaponopen" : 0,
						"toolbarvisible" : 1,
						"boxanimatetime" : 200,
						"imprint" : 0,
						"metadata" : [  ],
						"boxes" : [ 							{
								"box" : 								{
									"maxclass" : "newobj",
									"text" : "+~ 0.5",
									"patching_rect" : [ 46.0, 109.0, 41.0, 17.0 ],
									"outlettype" : [ "signal" ],
									"id" : "obj-1",
									"fontname" : "Verdana",
									"fontsize" : 9.0,
									"numinlets" : 2,
									"numoutlets" : 1
								}

							}
, 							{
								"box" : 								{
									"maxclass" : "newobj",
									"text" : "*~ 0.5",
									"patching_rect" : [ 46.0, 84.0, 41.0, 17.0 ],
									"outlettype" : [ "signal" ],
									"id" : "obj-2",
									"fontname" : "Verdana",
									"fontsize" : 9.0,
									"numinlets" : 2,
									"numoutlets" : 1
								}

							}
, 							{
								"box" : 								{
									"maxclass" : "newobj",
									"text" : "pass~",
									"patching_rect" : [ 46.0, 137.0, 36.0, 17.0 ],
									"outlettype" : [ "signal" ],
									"id" : "obj-3",
									"fontname" : "Verdana",
									"fontsize" : 9.0,
									"numinlets" : 1,
									"numoutlets" : 1
								}

							}
, 							{
								"box" : 								{
									"maxclass" : "newobj",
									"text" : "rand~ 100",
									"patching_rect" : [ 46.0, 49.0, 57.0, 17.0 ],
									"outlettype" : [ "signal" ],
									"id" : "obj-4",
									"fontname" : "Verdana",
									"fontsize" : 9.0,
									"numinlets" : 1,
									"numoutlets" : 1
								}

							}
, 							{
								"box" : 								{
									"maxclass" : "inlet",
									"patching_rect" : [ 46.0, 29.0, 15.0, 15.0 ],
									"outlettype" : [ "" ],
									"id" : "obj-5",
									"numinlets" : 0,
									"numoutlets" : 1,
									"comment" : ""
								}

							}
, 							{
								"box" : 								{
									"maxclass" : "outlet",
									"patching_rect" : [ 46.0, 163.0, 15.0, 15.0 ],
									"id" : "obj-6",
									"numinlets" : 1,
									"numoutlets" : 0,
									"comment" : ""
								}

							}
 ],
						"lines" : [ 							{
								"patchline" : 								{
									"source" : [ "obj-3", 0 ],
									"destination" : [ "obj-6", 0 ],
									"hidden" : 0,
									"midpoints" : [  ]
								}

							}
, 							{
								"patchline" : 								{
									"source" : [ "obj-1", 0 ],
									"destination" : [ "obj-3", 0 ],
									"hidden" : 0,
									"midpoints" : [  ]
								}

							}
, 							{
								"patchline" : 								{
									"source" : [ "obj-2", 0 ],
									"destination" : [ "obj-1", 0 ],
									"hidden" : 0,
									"midpoints" : [  ]
								}

							}
, 							{
								"patchline" : 								{
									"source" : [ "obj-4", 0 ],
									"destination" : [ "obj-2", 0 ],
									"hidden" : 0,
									"midpoints" : [  ]
								}

							}
, 							{
								"patchline" : 								{
									"source" : [ "obj-5", 0 ],
									"destination" : [ "obj-4", 0 ],
									"hidden" : 0,
									"midpoints" : [  ]
								}

							}
 ]
					}
,
					"saved_object_attributes" : 					{
						"default_fontsize" : 11.1,
						"fontname" : "Verdana",
						"globalpatchername" : "",
						"fontface" : 0,
						"fontsize" : 11.1,
						"default_fontface" : 0,
						"default_fontname" : "Verdana"
					}

				}

			}
, 			{
				"box" : 				{
					"maxclass" : "newobj",
					"text" : "p rect",
					"patching_rect" : [ 284.0, 267.0, 37.0, 17.0 ],
					"outlettype" : [ "signal" ],
					"id" : "obj-27",
					"fontname" : "Verdana",
					"fontsize" : 9.0,
					"numinlets" : 2,
					"numoutlets" : 1,
					"patcher" : 					{
						"fileversion" : 1,
						"rect" : [ 37.0, 176.0, 154.0, 216.0 ],
						"bglocked" : 0,
						"defrect" : [ 37.0, 176.0, 154.0, 216.0 ],
						"openrect" : [ 0.0, 0.0, 0.0, 0.0 ],
						"openinpresentation" : 0,
						"default_fontsize" : 11.1,
						"default_fontface" : 0,
						"default_fontname" : "Verdana",
						"gridonopen" : 0,
						"gridsize" : [ 15.0, 15.0 ],
						"gridsnaponopen" : 0,
						"toolbarvisible" : 1,
						"boxanimatetime" : 200,
						"imprint" : 0,
						"metadata" : [  ],
						"boxes" : [ 							{
								"box" : 								{
									"maxclass" : "inlet",
									"patching_rect" : [ 96.0, 30.0, 15.0, 15.0 ],
									"outlettype" : [ "" ],
									"id" : "obj-1",
									"numinlets" : 0,
									"numoutlets" : 1,
									"comment" : ""
								}

							}
, 							{
								"box" : 								{
									"maxclass" : "newobj",
									"text" : ">~ 0.5",
									"patching_rect" : [ 50.0, 83.0, 56.0, 17.0 ],
									"outlettype" : [ "signal" ],
									"id" : "obj-2",
									"fontname" : "Verdana",
									"fontsize" : 9.0,
									"numinlets" : 2,
									"numoutlets" : 1
								}

							}
, 							{
								"box" : 								{
									"maxclass" : "newobj",
									"text" : "phasor~",
									"patching_rect" : [ 50.0, 58.0, 47.0, 17.0 ],
									"outlettype" : [ "signal" ],
									"id" : "obj-3",
									"fontname" : "Verdana",
									"fontsize" : 9.0,
									"numinlets" : 2,
									"numoutlets" : 1,
									"color" : [ 1.0, 0.890196, 0.090196, 1.0 ]
								}

							}
, 							{
								"box" : 								{
									"maxclass" : "newobj",
									"text" : "pass~",
									"patching_rect" : [ 50.0, 113.0, 36.0, 17.0 ],
									"outlettype" : [ "signal" ],
									"id" : "obj-4",
									"fontname" : "Verdana",
									"fontsize" : 9.0,
									"numinlets" : 1,
									"numoutlets" : 1
								}

							}
, 							{
								"box" : 								{
									"maxclass" : "inlet",
									"patching_rect" : [ 50.0, 30.0, 15.0, 15.0 ],
									"outlettype" : [ "" ],
									"id" : "obj-5",
									"numinlets" : 0,
									"numoutlets" : 1,
									"comment" : ""
								}

							}
, 							{
								"box" : 								{
									"maxclass" : "outlet",
									"patching_rect" : [ 50.0, 149.0, 15.0, 15.0 ],
									"id" : "obj-6",
									"numinlets" : 1,
									"numoutlets" : 0,
									"comment" : ""
								}

							}
 ],
						"lines" : [ 							{
								"patchline" : 								{
									"source" : [ "obj-1", 0 ],
									"destination" : [ "obj-2", 1 ],
									"hidden" : 0,
									"midpoints" : [  ]
								}

							}
, 							{
								"patchline" : 								{
									"source" : [ "obj-4", 0 ],
									"destination" : [ "obj-6", 0 ],
									"hidden" : 0,
									"midpoints" : [  ]
								}

							}
, 							{
								"patchline" : 								{
									"source" : [ "obj-2", 0 ],
									"destination" : [ "obj-4", 0 ],
									"hidden" : 0,
									"midpoints" : [  ]
								}

							}
, 							{
								"patchline" : 								{
									"source" : [ "obj-3", 0 ],
									"destination" : [ "obj-2", 0 ],
									"hidden" : 0,
									"midpoints" : [  ]
								}

							}
, 							{
								"patchline" : 								{
									"source" : [ "obj-5", 0 ],
									"destination" : [ "obj-3", 0 ],
									"hidden" : 0,
									"midpoints" : [  ]
								}

							}
 ]
					}
,
					"saved_object_attributes" : 					{
						"default_fontsize" : 11.1,
						"fontname" : "Verdana",
						"globalpatchername" : "",
						"fontface" : 0,
						"fontsize" : 11.1,
						"default_fontface" : 0,
						"default_fontname" : "Verdana"
					}

				}

			}
, 			{
				"box" : 				{
					"maxclass" : "newobj",
					"text" : "p ramp",
					"patching_rect" : [ 240.0, 267.0, 41.0, 17.0 ],
					"outlettype" : [ "signal" ],
					"id" : "obj-28",
					"fontname" : "Verdana",
					"fontsize" : 9.0,
					"numinlets" : 2,
					"numoutlets" : 1,
					"patcher" : 					{
						"fileversion" : 1,
						"rect" : [ 231.0, 378.0, 196.0, 243.0 ],
						"bglocked" : 0,
						"defrect" : [ 231.0, 378.0, 196.0, 243.0 ],
						"openrect" : [ 0.0, 0.0, 0.0, 0.0 ],
						"openinpresentation" : 0,
						"default_fontsize" : 11.1,
						"default_fontface" : 0,
						"default_fontname" : "Verdana",
						"gridonopen" : 0,
						"gridsize" : [ 15.0, 15.0 ],
						"gridsnaponopen" : 0,
						"toolbarvisible" : 1,
						"boxanimatetime" : 200,
						"imprint" : 0,
						"metadata" : [  ],
						"boxes" : [ 							{
								"box" : 								{
									"maxclass" : "newobj",
									"text" : "sig~",
									"patching_rect" : [ 148.0, 61.0, 29.0, 17.0 ],
									"outlettype" : [ "signal" ],
									"id" : "obj-1",
									"fontname" : "Verdana",
									"fontsize" : 9.0,
									"numinlets" : 1,
									"numoutlets" : 1
								}

							}
, 							{
								"box" : 								{
									"maxclass" : "inlet",
									"patching_rect" : [ 134.0, 34.0, 15.0, 15.0 ],
									"outlettype" : [ "float" ],
									"id" : "obj-2",
									"numinlets" : 0,
									"numoutlets" : 1,
									"comment" : ""
								}

							}
, 							{
								"box" : 								{
									"maxclass" : "newobj",
									"text" : "phasor~",
									"linecount" : 2,
									"patching_rect" : [ 50.0, 60.0, 46.0, 28.0 ],
									"outlettype" : [ "signal" ],
									"id" : "obj-3",
									"fontname" : "Verdana",
									"fontsize" : 9.0,
									"numinlets" : 2,
									"numoutlets" : 1
								}

							}
, 							{
								"box" : 								{
									"maxclass" : "newobj",
									"text" : "pass~",
									"patching_rect" : [ 50.0, 137.0, 36.0, 17.0 ],
									"outlettype" : [ "signal" ],
									"id" : "obj-4",
									"fontname" : "Verdana",
									"fontsize" : 9.0,
									"numinlets" : 1,
									"numoutlets" : 1
								}

							}
, 							{
								"box" : 								{
									"maxclass" : "newobj",
									"text" : "trapezoid~ 0.5 0.5",
									"patching_rect" : [ 50.0, 111.0, 94.0, 17.0 ],
									"outlettype" : [ "signal" ],
									"id" : "obj-5",
									"fontname" : "Verdana",
									"fontsize" : 9.0,
									"numinlets" : 3,
									"numoutlets" : 1
								}

							}
, 							{
								"box" : 								{
									"maxclass" : "inlet",
									"patching_rect" : [ 50.0, 36.0, 15.0, 15.0 ],
									"outlettype" : [ "" ],
									"id" : "obj-6",
									"numinlets" : 0,
									"numoutlets" : 1,
									"comment" : ""
								}

							}
, 							{
								"box" : 								{
									"maxclass" : "outlet",
									"patching_rect" : [ 50.0, 165.0, 15.0, 15.0 ],
									"id" : "obj-7",
									"numinlets" : 1,
									"numoutlets" : 0,
									"comment" : ""
								}

							}
 ],
						"lines" : [ 							{
								"patchline" : 								{
									"source" : [ "obj-2", 0 ],
									"destination" : [ "obj-1", 0 ],
									"hidden" : 0,
									"midpoints" : [  ]
								}

							}
, 							{
								"patchline" : 								{
									"source" : [ "obj-1", 0 ],
									"destination" : [ "obj-5", 2 ],
									"hidden" : 0,
									"midpoints" : [  ]
								}

							}
, 							{
								"patchline" : 								{
									"source" : [ "obj-2", 0 ],
									"destination" : [ "obj-5", 2 ],
									"hidden" : 0,
									"midpoints" : [  ]
								}

							}
, 							{
								"patchline" : 								{
									"source" : [ "obj-1", 0 ],
									"destination" : [ "obj-5", 1 ],
									"hidden" : 0,
									"midpoints" : [  ]
								}

							}
, 							{
								"patchline" : 								{
									"source" : [ "obj-2", 0 ],
									"destination" : [ "obj-5", 1 ],
									"hidden" : 0,
									"midpoints" : [  ]
								}

							}
, 							{
								"patchline" : 								{
									"source" : [ "obj-4", 0 ],
									"destination" : [ "obj-7", 0 ],
									"hidden" : 0,
									"midpoints" : [  ]
								}

							}
, 							{
								"patchline" : 								{
									"source" : [ "obj-5", 0 ],
									"destination" : [ "obj-4", 0 ],
									"hidden" : 0,
									"midpoints" : [  ]
								}

							}
, 							{
								"patchline" : 								{
									"source" : [ "obj-3", 0 ],
									"destination" : [ "obj-5", 0 ],
									"hidden" : 0,
									"midpoints" : [  ]
								}

							}
, 							{
								"patchline" : 								{
									"source" : [ "obj-6", 0 ],
									"destination" : [ "obj-3", 0 ],
									"hidden" : 0,
									"midpoints" : [  ]
								}

							}
 ]
					}
,
					"saved_object_attributes" : 					{
						"default_fontsize" : 11.1,
						"fontname" : "Verdana",
						"globalpatchername" : "",
						"fontface" : 0,
						"fontsize" : 11.1,
						"default_fontface" : 0,
						"default_fontname" : "Verdana"
					}

				}

			}
, 			{
				"box" : 				{
					"maxclass" : "newobj",
					"text" : "p sine",
					"patching_rect" : [ 196.0, 266.0, 36.0, 17.0 ],
					"outlettype" : [ "signal" ],
					"id" : "obj-29",
					"fontname" : "Verdana",
					"fontsize" : 9.0,
					"numinlets" : 1,
					"numoutlets" : 1,
					"patcher" : 					{
						"fileversion" : 1,
						"rect" : [ 635.0, 516.0, 184.0, 247.0 ],
						"bglocked" : 0,
						"defrect" : [ 635.0, 516.0, 184.0, 247.0 ],
						"openrect" : [ 0.0, 0.0, 0.0, 0.0 ],
						"openinpresentation" : 0,
						"default_fontsize" : 11.1,
						"default_fontface" : 0,
						"default_fontname" : "Verdana",
						"gridonopen" : 0,
						"gridsize" : [ 15.0, 15.0 ],
						"gridsnaponopen" : 0,
						"toolbarvisible" : 1,
						"boxanimatetime" : 200,
						"imprint" : 0,
						"metadata" : [  ],
						"boxes" : [ 							{
								"box" : 								{
									"maxclass" : "newobj",
									"text" : "+~ 0.5",
									"linecount" : 2,
									"patching_rect" : [ 37.0, 111.0, 40.0, 28.0 ],
									"outlettype" : [ "signal" ],
									"id" : "obj-1",
									"fontname" : "Verdana",
									"fontsize" : 9.0,
									"numinlets" : 2,
									"numoutlets" : 1
								}

							}
, 							{
								"box" : 								{
									"maxclass" : "newobj",
									"text" : "*~ 0.5",
									"patching_rect" : [ 37.0, 86.0, 41.0, 17.0 ],
									"outlettype" : [ "signal" ],
									"id" : "obj-2",
									"fontname" : "Verdana",
									"fontsize" : 9.0,
									"numinlets" : 2,
									"numoutlets" : 1
								}

							}
, 							{
								"box" : 								{
									"maxclass" : "newobj",
									"text" : "pass~",
									"patching_rect" : [ 37.0, 137.0, 36.0, 17.0 ],
									"outlettype" : [ "signal" ],
									"id" : "obj-3",
									"fontname" : "Verdana",
									"fontsize" : 9.0,
									"numinlets" : 1,
									"numoutlets" : 1
								}

							}
, 							{
								"box" : 								{
									"maxclass" : "newobj",
									"text" : "cycle~",
									"patching_rect" : [ 37.0, 61.0, 40.0, 17.0 ],
									"outlettype" : [ "signal" ],
									"id" : "obj-4",
									"fontname" : "Verdana",
									"fontsize" : 9.0,
									"numinlets" : 2,
									"numoutlets" : 1
								}

							}
, 							{
								"box" : 								{
									"maxclass" : "inlet",
									"patching_rect" : [ 37.0, 38.0, 15.0, 15.0 ],
									"outlettype" : [ "" ],
									"id" : "obj-5",
									"numinlets" : 0,
									"numoutlets" : 1,
									"comment" : ""
								}

							}
, 							{
								"box" : 								{
									"maxclass" : "outlet",
									"patching_rect" : [ 37.0, 165.0, 15.0, 15.0 ],
									"id" : "obj-6",
									"numinlets" : 1,
									"numoutlets" : 0,
									"comment" : ""
								}

							}
 ],
						"lines" : [ 							{
								"patchline" : 								{
									"source" : [ "obj-3", 0 ],
									"destination" : [ "obj-6", 0 ],
									"hidden" : 0,
									"midpoints" : [  ]
								}

							}
, 							{
								"patchline" : 								{
									"source" : [ "obj-1", 0 ],
									"destination" : [ "obj-3", 0 ],
									"hidden" : 0,
									"midpoints" : [  ]
								}

							}
, 							{
								"patchline" : 								{
									"source" : [ "obj-2", 0 ],
									"destination" : [ "obj-1", 0 ],
									"hidden" : 0,
									"midpoints" : [  ]
								}

							}
, 							{
								"patchline" : 								{
									"source" : [ "obj-4", 0 ],
									"destination" : [ "obj-2", 0 ],
									"hidden" : 0,
									"midpoints" : [  ]
								}

							}
, 							{
								"patchline" : 								{
									"source" : [ "obj-5", 0 ],
									"destination" : [ "obj-4", 0 ],
									"hidden" : 0,
									"midpoints" : [  ]
								}

							}
 ]
					}
,
					"saved_object_attributes" : 					{
						"default_fontsize" : 11.1,
						"fontname" : "Verdana",
						"globalpatchername" : "",
						"fontface" : 0,
						"fontsize" : 11.1,
						"default_fontface" : 0,
						"default_fontname" : "Verdana"
					}

				}

			}
, 			{
				"box" : 				{
					"maxclass" : "newobj",
					"text" : "mute~",
					"patching_rect" : [ 293.0, 214.0, 39.0, 17.0 ],
					"outlettype" : [ "" ],
					"id" : "obj-30",
					"fontname" : "Verdana",
					"fontsize" : 9.0,
					"numinlets" : 1,
					"numoutlets" : 1
				}

			}
, 			{
				"box" : 				{
					"maxclass" : "inlet",
					"patching_rect" : [ 418.0, 87.0, 15.0, 15.0 ],
					"outlettype" : [ "" ],
					"id" : "obj-31",
					"numinlets" : 0,
					"numoutlets" : 1,
					"comment" : "frequency"
				}

			}
, 			{
				"box" : 				{
					"maxclass" : "inlet",
					"patching_rect" : [ 522.0, 85.0, 15.0, 15.0 ],
					"outlettype" : [ "" ],
					"id" : "obj-32",
					"numinlets" : 0,
					"numoutlets" : 1,
					"comment" : "0:sine 1:ramp 2:rect 3:noise"
				}

			}
, 			{
				"box" : 				{
					"maxclass" : "newobj",
					"text" : "p scale~",
					"patching_rect" : [ 399.0, 343.0, 47.0, 17.0 ],
					"outlettype" : [ "signal" ],
					"id" : "obj-33",
					"fontname" : "Verdana",
					"fontsize" : 9.0,
					"numinlets" : 3,
					"numoutlets" : 1,
					"patcher" : 					{
						"fileversion" : 1,
						"rect" : [ 724.0, 555.0, 291.0, 313.0 ],
						"bglocked" : 0,
						"defrect" : [ 724.0, 555.0, 291.0, 313.0 ],
						"openrect" : [ 0.0, 0.0, 0.0, 0.0 ],
						"openinpresentation" : 0,
						"default_fontsize" : 11.1,
						"default_fontface" : 0,
						"default_fontname" : "Verdana",
						"gridonopen" : 0,
						"gridsize" : [ 15.0, 15.0 ],
						"gridsnaponopen" : 0,
						"toolbarvisible" : 1,
						"boxanimatetime" : 200,
						"imprint" : 0,
						"metadata" : [  ],
						"boxes" : [ 							{
								"box" : 								{
									"maxclass" : "newobj",
									"text" : "sig~",
									"patching_rect" : [ 118.0, 84.0, 29.0, 17.0 ],
									"outlettype" : [ "signal" ],
									"id" : "obj-1",
									"fontname" : "Verdana",
									"fontsize" : 9.0,
									"numinlets" : 1,
									"numoutlets" : 1
								}

							}
, 							{
								"box" : 								{
									"maxclass" : "newobj",
									"text" : "sig~",
									"patching_rect" : [ 228.0, 81.0, 29.0, 17.0 ],
									"outlettype" : [ "signal" ],
									"id" : "obj-2",
									"fontname" : "Verdana",
									"fontsize" : 9.0,
									"numinlets" : 1,
									"numoutlets" : 1
								}

							}
, 							{
								"box" : 								{
									"maxclass" : "newobj",
									"text" : "+~",
									"patching_rect" : [ 29.0, 202.0, 44.0, 17.0 ],
									"outlettype" : [ "signal" ],
									"id" : "obj-3",
									"fontname" : "Verdana",
									"fontsize" : 9.0,
									"numinlets" : 2,
									"numoutlets" : 1
								}

							}
, 							{
								"box" : 								{
									"maxclass" : "outlet",
									"patching_rect" : [ 29.0, 232.0, 15.0, 15.0 ],
									"id" : "obj-4",
									"numinlets" : 1,
									"numoutlets" : 0,
									"comment" : ""
								}

							}
, 							{
								"box" : 								{
									"maxclass" : "newobj",
									"text" : "*~",
									"patching_rect" : [ 29.0, 155.0, 27.0, 17.0 ],
									"outlettype" : [ "signal" ],
									"id" : "obj-5",
									"fontname" : "Verdana",
									"fontsize" : 9.0,
									"numinlets" : 2,
									"numoutlets" : 1
								}

							}
, 							{
								"box" : 								{
									"maxclass" : "inlet",
									"patching_rect" : [ 29.0, 45.0, 15.0, 15.0 ],
									"outlettype" : [ "signal" ],
									"id" : "obj-6",
									"numinlets" : 0,
									"numoutlets" : 1,
									"comment" : ""
								}

							}
, 							{
								"box" : 								{
									"maxclass" : "newobj",
									"text" : "-~",
									"patching_rect" : [ 158.0, 122.0, 47.0, 17.0 ],
									"outlettype" : [ "signal" ],
									"id" : "obj-7",
									"fontname" : "Verdana",
									"fontsize" : 9.0,
									"numinlets" : 2,
									"numoutlets" : 1
								}

							}
, 							{
								"box" : 								{
									"maxclass" : "comment",
									"text" : "Max",
									"patching_rect" : [ 218.0, 30.0, 38.0, 17.0 ],
									"id" : "obj-8",
									"fontname" : "Verdana",
									"fontsize" : 9.0,
									"numinlets" : 1,
									"numoutlets" : 0
								}

							}
, 							{
								"box" : 								{
									"maxclass" : "comment",
									"text" : "Min",
									"patching_rect" : [ 116.0, 31.0, 38.0, 17.0 ],
									"id" : "obj-9",
									"fontname" : "Verdana",
									"fontsize" : 9.0,
									"numinlets" : 1,
									"numoutlets" : 0
								}

							}
, 							{
								"box" : 								{
									"maxclass" : "inlet",
									"patching_rect" : [ 228.0, 48.0, 15.0, 15.0 ],
									"outlettype" : [ "float" ],
									"id" : "obj-10",
									"numinlets" : 0,
									"numoutlets" : 1,
									"comment" : "max"
								}

							}
, 							{
								"box" : 								{
									"maxclass" : "inlet",
									"patching_rect" : [ 118.0, 45.0, 15.0, 15.0 ],
									"outlettype" : [ "float" ],
									"id" : "obj-11",
									"numinlets" : 0,
									"numoutlets" : 1,
									"comment" : "min"
								}

							}
, 							{
								"box" : 								{
									"maxclass" : "comment",
									"text" : "Use sig~ to handle float input",
									"linecount" : 2,
									"patching_rect" : [ 168.0, 165.0, 92.0, 28.0 ],
									"id" : "obj-12",
									"fontname" : "Verdana",
									"fontsize" : 9.0,
									"numinlets" : 1,
									"numoutlets" : 0
								}

							}
 ],
						"lines" : [ 							{
								"patchline" : 								{
									"source" : [ "obj-10", 0 ],
									"destination" : [ "obj-2", 0 ],
									"hidden" : 0,
									"midpoints" : [  ]
								}

							}
, 							{
								"patchline" : 								{
									"source" : [ "obj-11", 0 ],
									"destination" : [ "obj-7", 1 ],
									"hidden" : 0,
									"midpoints" : [  ]
								}

							}
, 							{
								"patchline" : 								{
									"source" : [ "obj-1", 0 ],
									"destination" : [ "obj-7", 1 ],
									"hidden" : 0,
									"midpoints" : [  ]
								}

							}
, 							{
								"patchline" : 								{
									"source" : [ "obj-2", 0 ],
									"destination" : [ "obj-7", 0 ],
									"hidden" : 0,
									"midpoints" : [  ]
								}

							}
, 							{
								"patchline" : 								{
									"source" : [ "obj-10", 0 ],
									"destination" : [ "obj-7", 0 ],
									"hidden" : 0,
									"midpoints" : [  ]
								}

							}
, 							{
								"patchline" : 								{
									"source" : [ "obj-11", 0 ],
									"destination" : [ "obj-1", 0 ],
									"hidden" : 0,
									"midpoints" : [  ]
								}

							}
, 							{
								"patchline" : 								{
									"source" : [ "obj-11", 0 ],
									"destination" : [ "obj-3", 1 ],
									"hidden" : 0,
									"midpoints" : [  ]
								}

							}
, 							{
								"patchline" : 								{
									"source" : [ "obj-7", 0 ],
									"destination" : [ "obj-5", 1 ],
									"hidden" : 0,
									"midpoints" : [ 167.5, 145.0, 46.5, 145.0 ]
								}

							}
, 							{
								"patchline" : 								{
									"source" : [ "obj-3", 0 ],
									"destination" : [ "obj-4", 0 ],
									"hidden" : 0,
									"midpoints" : [  ]
								}

							}
, 							{
								"patchline" : 								{
									"source" : [ "obj-5", 0 ],
									"destination" : [ "obj-3", 0 ],
									"hidden" : 0,
									"midpoints" : [  ]
								}

							}
, 							{
								"patchline" : 								{
									"source" : [ "obj-6", 0 ],
									"destination" : [ "obj-5", 0 ],
									"hidden" : 0,
									"midpoints" : [  ]
								}

							}
 ]
					}
,
					"saved_object_attributes" : 					{
						"default_fontsize" : 11.1,
						"fontname" : "Verdana",
						"globalpatchername" : "",
						"fontface" : 0,
						"fontsize" : 11.1,
						"default_fontface" : 0,
						"default_fontname" : "Verdana"
					}

				}

			}
, 			{
				"box" : 				{
					"maxclass" : "comment",
					"text" : "signal goes from 0 to 1",
					"patching_rect" : [ 213.0, 305.0, 168.0, 17.0 ],
					"id" : "obj-34",
					"fontname" : "Verdana",
					"fontsize" : 9.0,
					"numinlets" : 1,
					"numoutlets" : 0
				}

			}
, 			{
				"box" : 				{
					"maxclass" : "comment",
					"text" : "Shape",
					"patching_rect" : [ 517.0, 68.0, 38.0, 17.0 ],
					"id" : "obj-35",
					"fontname" : "Verdana",
					"fontsize" : 9.0,
					"numinlets" : 1,
					"numoutlets" : 0
				}

			}
 ],
		"lines" : [ 			{
				"patchline" : 				{
					"source" : [ "obj-10", 2 ],
					"destination" : [ "obj-33", 2 ],
					"hidden" : 0,
					"color" : [ 0.6, 0.4, 0.6, 1.0 ],
					"midpoints" : [ 85.5, 326.0, 436.5, 326.0 ]
				}

			}
, 			{
				"patchline" : 				{
					"source" : [ "obj-5", 0 ],
					"destination" : [ "obj-33", 2 ],
					"hidden" : 0,
					"color" : [ 0.6, 0.4, 0.6, 1.0 ],
					"midpoints" : [ 493.0, 326.0, 436.5, 326.0 ]
				}

			}
, 			{
				"patchline" : 				{
					"source" : [ "obj-10", 1 ],
					"destination" : [ "obj-33", 1 ],
					"hidden" : 0,
					"color" : [ 1.0, 0.360784, 0.682353, 1.0 ],
					"midpoints" : [ 60.5, 320.0, 422.5, 320.0 ]
				}

			}
, 			{
				"patchline" : 				{
					"source" : [ "obj-6", 0 ],
					"destination" : [ "obj-33", 1 ],
					"hidden" : 0,
					"color" : [ 1.0, 0.360784, 0.682353, 1.0 ],
					"midpoints" : [ 459.0, 320.0, 422.5, 320.0 ]
				}

			}
, 			{
				"patchline" : 				{
					"source" : [ "obj-33", 0 ],
					"destination" : [ "obj-2", 0 ],
					"hidden" : 0,
					"midpoints" : [  ]
				}

			}
, 			{
				"patchline" : 				{
					"source" : [ "obj-26", 0 ],
					"destination" : [ "obj-33", 0 ],
					"hidden" : 0,
					"midpoints" : [ 337.5, 300.0, 408.5, 300.0 ]
				}

			}
, 			{
				"patchline" : 				{
					"source" : [ "obj-27", 0 ],
					"destination" : [ "obj-33", 0 ],
					"hidden" : 0,
					"midpoints" : [ 293.5, 301.0, 408.5, 301.0 ]
				}

			}
, 			{
				"patchline" : 				{
					"source" : [ "obj-28", 0 ],
					"destination" : [ "obj-33", 0 ],
					"hidden" : 0,
					"midpoints" : [ 249.5, 301.0, 408.5, 301.0 ]
				}

			}
, 			{
				"patchline" : 				{
					"source" : [ "obj-29", 0 ],
					"destination" : [ "obj-33", 0 ],
					"hidden" : 0,
					"midpoints" : [ 205.5, 301.0, 408.5, 301.0 ]
				}

			}
, 			{
				"patchline" : 				{
					"source" : [ "obj-30", 0 ],
					"destination" : [ "obj-26", 0 ],
					"hidden" : 0,
					"midpoints" : [  ]
				}

			}
, 			{
				"patchline" : 				{
					"source" : [ "obj-31", 0 ],
					"destination" : [ "obj-26", 0 ],
					"hidden" : 0,
					"color" : [ 0.156863, 0.8, 0.54902, 1.0 ],
					"midpoints" : [ 427.0, 249.0, 337.5, 249.0 ]
				}

			}
, 			{
				"patchline" : 				{
					"source" : [ "obj-10", 0 ],
					"destination" : [ "obj-26", 0 ],
					"hidden" : 0,
					"color" : [ 0.156863, 0.8, 0.54902, 1.0 ],
					"midpoints" : [ 35.5, 249.0, 337.5, 249.0 ]
				}

			}
, 			{
				"patchline" : 				{
					"source" : [ "obj-9", 0 ],
					"destination" : [ "obj-27", 1 ],
					"hidden" : 0,
					"color" : [ 0.8, 0.611765, 0.380392, 1.0 ],
					"midpoints" : [ 572.0, 259.0, 311.5, 259.0 ]
				}

			}
, 			{
				"patchline" : 				{
					"source" : [ "obj-10", 4 ],
					"destination" : [ "obj-27", 1 ],
					"hidden" : 0,
					"color" : [ 0.8, 0.611765, 0.380392, 1.0 ],
					"midpoints" : [ 135.5, 259.0, 311.5, 259.0 ]
				}

			}
, 			{
				"patchline" : 				{
					"source" : [ "obj-18", 0 ],
					"destination" : [ "obj-30", 0 ],
					"hidden" : 0,
					"midpoints" : [  ]
				}

			}
, 			{
				"patchline" : 				{
					"source" : [ "obj-22", 3 ],
					"destination" : [ "obj-18", 0 ],
					"hidden" : 0,
					"midpoints" : [  ]
				}

			}
, 			{
				"patchline" : 				{
					"source" : [ "obj-16", 5 ],
					"destination" : [ "obj-11", 0 ],
					"hidden" : 0,
					"midpoints" : [  ]
				}

			}
, 			{
				"patchline" : 				{
					"source" : [ "obj-25", 0 ],
					"destination" : [ "obj-27", 0 ],
					"hidden" : 0,
					"midpoints" : [  ]
				}

			}
, 			{
				"patchline" : 				{
					"source" : [ "obj-31", 0 ],
					"destination" : [ "obj-27", 0 ],
					"hidden" : 0,
					"color" : [ 0.156863, 0.8, 0.54902, 1.0 ],
					"midpoints" : [ 427.0, 249.0, 293.5, 249.0 ]
				}

			}
, 			{
				"patchline" : 				{
					"source" : [ "obj-10", 0 ],
					"destination" : [ "obj-27", 0 ],
					"hidden" : 0,
					"color" : [ 0.156863, 0.8, 0.54902, 1.0 ],
					"midpoints" : [ 35.5, 249.0, 293.5, 249.0 ]
				}

			}
, 			{
				"patchline" : 				{
					"source" : [ "obj-10", 4 ],
					"destination" : [ "obj-28", 1 ],
					"hidden" : 0,
					"color" : [ 0.8, 0.611765, 0.380392, 1.0 ],
					"midpoints" : [ 135.5, 259.0, 271.5, 259.0 ]
				}

			}
, 			{
				"patchline" : 				{
					"source" : [ "obj-9", 0 ],
					"destination" : [ "obj-28", 1 ],
					"hidden" : 0,
					"color" : [ 0.8, 0.611765, 0.380392, 1.0 ],
					"midpoints" : [ 572.0, 259.0, 271.5, 259.0 ]
				}

			}
, 			{
				"patchline" : 				{
					"source" : [ "obj-16", 4 ],
					"destination" : [ "obj-12", 0 ],
					"hidden" : 0,
					"midpoints" : [  ]
				}

			}
, 			{
				"patchline" : 				{
					"source" : [ "obj-19", 0 ],
					"destination" : [ "obj-25", 0 ],
					"hidden" : 0,
					"midpoints" : [  ]
				}

			}
, 			{
				"patchline" : 				{
					"source" : [ "obj-22", 2 ],
					"destination" : [ "obj-19", 0 ],
					"hidden" : 0,
					"midpoints" : [  ]
				}

			}
, 			{
				"patchline" : 				{
					"source" : [ "obj-24", 0 ],
					"destination" : [ "obj-28", 0 ],
					"hidden" : 0,
					"midpoints" : [  ]
				}

			}
, 			{
				"patchline" : 				{
					"source" : [ "obj-31", 0 ],
					"destination" : [ "obj-28", 0 ],
					"hidden" : 0,
					"color" : [ 0.156863, 0.8, 0.54902, 1.0 ],
					"midpoints" : [ 427.0, 249.0, 249.5, 249.0 ]
				}

			}
, 			{
				"patchline" : 				{
					"source" : [ "obj-10", 0 ],
					"destination" : [ "obj-28", 0 ],
					"hidden" : 0,
					"color" : [ 0.156863, 0.8, 0.54902, 1.0 ],
					"midpoints" : [ 35.5, 249.0, 249.5, 249.0 ]
				}

			}
, 			{
				"patchline" : 				{
					"source" : [ "obj-16", 3 ],
					"destination" : [ "obj-13", 0 ],
					"hidden" : 0,
					"midpoints" : [  ]
				}

			}
, 			{
				"patchline" : 				{
					"source" : [ "obj-16", 2 ],
					"destination" : [ "obj-14", 0 ],
					"hidden" : 0,
					"midpoints" : [  ]
				}

			}
, 			{
				"patchline" : 				{
					"source" : [ "obj-20", 0 ],
					"destination" : [ "obj-24", 0 ],
					"hidden" : 0,
					"midpoints" : [  ]
				}

			}
, 			{
				"patchline" : 				{
					"source" : [ "obj-22", 1 ],
					"destination" : [ "obj-20", 0 ],
					"hidden" : 0,
					"midpoints" : [  ]
				}

			}
, 			{
				"patchline" : 				{
					"source" : [ "obj-23", 0 ],
					"destination" : [ "obj-29", 0 ],
					"hidden" : 0,
					"midpoints" : [  ]
				}

			}
, 			{
				"patchline" : 				{
					"source" : [ "obj-31", 0 ],
					"destination" : [ "obj-29", 0 ],
					"hidden" : 0,
					"color" : [ 0.156863, 0.8, 0.54902, 1.0 ],
					"midpoints" : [ 427.0, 249.0, 205.5, 249.0 ]
				}

			}
, 			{
				"patchline" : 				{
					"source" : [ "obj-10", 0 ],
					"destination" : [ "obj-29", 0 ],
					"hidden" : 0,
					"color" : [ 0.156863, 0.8, 0.54902, 1.0 ],
					"midpoints" : [ 35.5, 249.0, 205.5, 249.0 ]
				}

			}
, 			{
				"patchline" : 				{
					"source" : [ "obj-16", 1 ],
					"destination" : [ "obj-15", 0 ],
					"hidden" : 0,
					"midpoints" : [  ]
				}

			}
, 			{
				"patchline" : 				{
					"source" : [ "obj-21", 0 ],
					"destination" : [ "obj-23", 0 ],
					"hidden" : 0,
					"midpoints" : [  ]
				}

			}
, 			{
				"patchline" : 				{
					"source" : [ "obj-22", 0 ],
					"destination" : [ "obj-21", 0 ],
					"hidden" : 0,
					"midpoints" : [  ]
				}

			}
, 			{
				"patchline" : 				{
					"source" : [ "obj-15", 0 ],
					"destination" : [ "obj-22", 0 ],
					"hidden" : 0,
					"midpoints" : [ 196.5, 144.0, 170.5, 144.0 ]
				}

			}
, 			{
				"patchline" : 				{
					"source" : [ "obj-14", 0 ],
					"destination" : [ "obj-22", 0 ],
					"hidden" : 0,
					"midpoints" : [ 222.5, 144.0, 170.5, 144.0 ]
				}

			}
, 			{
				"patchline" : 				{
					"source" : [ "obj-13", 0 ],
					"destination" : [ "obj-22", 0 ],
					"hidden" : 0,
					"midpoints" : [ 248.5, 144.0, 170.5, 144.0 ]
				}

			}
, 			{
				"patchline" : 				{
					"source" : [ "obj-12", 0 ],
					"destination" : [ "obj-22", 0 ],
					"hidden" : 0,
					"midpoints" : [ 274.5, 144.0, 170.5, 144.0 ]
				}

			}
, 			{
				"patchline" : 				{
					"source" : [ "obj-16", 0 ],
					"destination" : [ "obj-22", 0 ],
					"hidden" : 0,
					"midpoints" : [  ]
				}

			}
, 			{
				"patchline" : 				{
					"source" : [ "obj-10", 3 ],
					"destination" : [ "obj-16", 0 ],
					"hidden" : 0,
					"midpoints" : [ 110.5, 86.0, 170.5, 86.0 ]
				}

			}
, 			{
				"patchline" : 				{
					"source" : [ "obj-32", 0 ],
					"destination" : [ "obj-16", 0 ],
					"hidden" : 0,
					"midpoints" : [ 531.0, 104.0, 517.0, 104.0, 517.0, 60.0, 170.5, 60.0 ]
				}

			}
, 			{
				"patchline" : 				{
					"source" : [ "obj-17", 0 ],
					"destination" : [ "obj-10", 0 ],
					"hidden" : 0,
					"midpoints" : [  ]
				}

			}
 ]
	}

}
