{
	"patcher" : 	{
		"fileversion" : 1,
		"rect" : [ 186.0, 280.0, 735.0, 517.0 ],
		"bglocked" : 0,
		"defrect" : [ 186.0, 280.0, 735.0, 517.0 ],
		"openrect" : [ 0.0, 0.0, 0.0, 0.0 ],
		"openinpresentation" : 0,
		"default_fontsize" : 11.1,
		"default_fontface" : 0,
		"default_fontname" : "Verdana",
		"gridonopen" : 0,
		"gridsize" : [ 15.0, 15.0 ],
		"gridsnaponopen" : 0,
		"toolbarvisible" : 1,
		"boxanimatetime" : 200,
		"imprint" : 0,
		"metadata" : [  ],
		"boxes" : [ 			{
				"box" : 				{
					"maxclass" : "newobj",
					"text" : "t b",
					"patching_rect" : [ 99.0, 120.0, 21.0, 17.0 ],
					"outlettype" : [ "bang" ],
					"id" : "obj-1",
					"fontname" : "Verdana",
					"fontsize" : 9.0,
					"numinlets" : 1,
					"numoutlets" : 1
				}

			}
, 			{
				"box" : 				{
					"maxclass" : "newobj",
					"varname" : "zl-reg",
					"text" : "zl reg",
					"patching_rect" : [ 112.0, 152.0, 36.0, 17.0 ],
					"outlettype" : [ "", "" ],
					"id" : "obj-2",
					"fontname" : "Verdana",
					"fontsize" : 9.0,
					"numinlets" : 2,
					"numoutlets" : 2
				}

			}
, 			{
				"box" : 				{
					"maxclass" : "newobj",
					"text" : "regexp /.*",
					"patching_rect" : [ 75.0, 98.0, 66.0, 17.0 ],
					"outlettype" : [ "", "", "", "", "" ],
					"id" : "obj-3",
					"fontname" : "Verdana",
					"fontsize" : 9.0,
					"numinlets" : 1,
					"numoutlets" : 5
				}

			}
, 			{
				"box" : 				{
					"maxclass" : "newobj",
					"text" : "t l b",
					"patching_rect" : [ 10.0, 79.0, 27.0, 17.0 ],
					"outlettype" : [ "", "bang" ],
					"id" : "obj-4",
					"fontname" : "Verdana",
					"fontsize" : 9.0,
					"numinlets" : 1,
					"numoutlets" : 2
				}

			}
, 			{
				"box" : 				{
					"maxclass" : "message",
					"text" : "target 0",
					"patching_rect" : [ 27.0, 115.0, 47.0, 15.0 ],
					"outlettype" : [ "" ],
					"id" : "obj-5",
					"fontname" : "Verdana",
					"fontsize" : 9.0,
					"numinlets" : 2,
					"numoutlets" : 1
				}

			}
, 			{
				"box" : 				{
					"maxclass" : "newobj",
					"text" : "route /*",
					"patching_rect" : [ 10.0, 56.0, 50.0, 17.0 ],
					"outlettype" : [ "", "" ],
					"id" : "obj-6",
					"fontname" : "Verdana",
					"fontsize" : 9.0,
					"numinlets" : 1,
					"numoutlets" : 2
				}

			}
, 			{
				"box" : 				{
					"maxclass" : "newobj",
					"text" : "patcherargs 4",
					"patching_rect" : [ 464.0, 48.0, 73.0, 17.0 ],
					"outlettype" : [ "", "" ],
					"id" : "obj-7",
					"fontname" : "Verdana",
					"fontsize" : 9.0,
					"numinlets" : 1,
					"numoutlets" : 2
				}

			}
, 			{
				"box" : 				{
					"maxclass" : "newobj",
					"text" : "t b s",
					"patching_rect" : [ 31.0, 342.0, 30.0, 17.0 ],
					"outlettype" : [ "bang", "" ],
					"id" : "obj-8",
					"fontname" : "Verdana",
					"fontsize" : 9.0,
					"numinlets" : 1,
					"numoutlets" : 2
				}

			}
, 			{
				"box" : 				{
					"maxclass" : "newobj",
					"text" : "zl reg",
					"patching_rect" : [ 63.0, 372.0, 36.0, 17.0 ],
					"outlettype" : [ "", "" ],
					"id" : "obj-9",
					"fontname" : "Verdana",
					"fontsize" : 9.0,
					"numinlets" : 2,
					"numoutlets" : 2
				}

			}
, 			{
				"box" : 				{
					"maxclass" : "message",
					"text" : "target $1",
					"patching_rect" : [ 31.0, 320.0, 53.0, 15.0 ],
					"outlettype" : [ "" ],
					"id" : "obj-10",
					"fontname" : "Verdana",
					"fontsize" : 9.0,
					"numinlets" : 2,
					"numoutlets" : 1
				}

			}
, 			{
				"box" : 				{
					"maxclass" : "newobj",
					"varname" : "zl-slice",
					"text" : "zl slice 1",
					"patching_rect" : [ 48.0, 290.0, 51.0, 17.0 ],
					"outlettype" : [ "", "" ],
					"id" : "obj-11",
					"fontname" : "Verdana",
					"fontsize" : 9.0,
					"numinlets" : 2,
					"numoutlets" : 2
				}

			}
, 			{
				"box" : 				{
					"maxclass" : "inlet",
					"patching_rect" : [ 10.0, 27.0, 15.0, 15.0 ],
					"outlettype" : [ "" ],
					"id" : "obj-12",
					"numinlets" : 0,
					"numoutlets" : 1,
					"comment" : ""
				}

			}
, 			{
				"box" : 				{
					"maxclass" : "outlet",
					"varname" : "outlet",
					"patching_rect" : [ 51.0, 422.0, 15.0, 15.0 ],
					"id" : "obj-13",
					"numinlets" : 1,
					"numoutlets" : 0,
					"comment" : ""
				}

			}
, 			{
				"box" : 				{
					"maxclass" : "newobj",
					"text" : "js ajm.polyroute-helper.js",
					"patching_rect" : [ 464.0, 74.0, 130.0, 17.0 ],
					"outlettype" : [ "" ],
					"id" : "obj-14",
					"fontname" : "Verdana",
					"fontsize" : 9.0,
					"numinlets" : 1,
					"numoutlets" : 1
				}

			}
, 			{
				"box" : 				{
					"maxclass" : "comment",
					"text" : "NOTE: When editing this patch, you need to delete the OSC-route (/1 /2 /3 /4 ...) and prepends (1, 2, ...) created automatically by patcherargs before saving!!",
					"linecount" : 3,
					"patching_rect" : [ 240.0, 342.0, 257.0, 39.0 ],
					"id" : "obj-15",
					"fontname" : "Verdana",
					"fontsize" : 9.0,
					"numinlets" : 1,
					"numoutlets" : 0
				}

			}
, 			{
				"box" : 				{
					"maxclass" : "comment",
					"text" : "Intercept /* early and send \"target 0\", \"msg. Otherwise OSC-route will send target\" 1, msg ... target n, \"msg which is less efficient\"",
					"linecount" : 2,
					"patching_rect" : [ 66.0, 53.0, 316.0, 28.0 ],
					"id" : "obj-16",
					"fontname" : "Verdana",
					"fontsize" : 9.0,
					"numinlets" : 1,
					"numoutlets" : 0
				}

			}
, 			{
				"box" : 				{
					"maxclass" : "comment",
					"text" : "Only pass messages starting with a \"/\" to the OSC-route. regexp \"corrupts\" the message by turning it into a single symbol. We could try to use the fromsymbol object to \"uncorrupt\" the message, but this doesn't work in all cases (for example if the message is \"1,2\" the comma will disappear). So zl reg is used instead.",
					"linecount" : 6,
					"patching_rect" : [ 151.0, 96.0, 280.0, 72.0 ],
					"id" : "obj-17",
					"fontname" : "Verdana",
					"fontsize" : 9.0,
					"numinlets" : 1,
					"numoutlets" : 0
				}

			}
, 			{
				"box" : 				{
					"maxclass" : "newobj",
					"text" : "OSC-route /1 /2 /3 /4",
					"linecount" : 6,
					"patching_rect" : [ 71.0, 170.0, 32.0, 79.0 ],
					"outlettype" : [ "", "", "", "", "" ],
					"id" : "obj-18",
					"fontname" : "Geneva",
					"fontsize" : 9.0,
					"numinlets" : 1,
					"numoutlets" : 5
				}

			}
, 			{
				"box" : 				{
					"maxclass" : "newobj",
					"text" : "prepend 1",
					"patching_rect" : [ 66.0, 220.0, 61.0, 19.0 ],
					"outlettype" : [ "" ],
					"id" : "obj-19",
					"fontname" : "Geneva",
					"fontsize" : 9.0,
					"numinlets" : 1,
					"numoutlets" : 1
				}

			}
, 			{
				"box" : 				{
					"maxclass" : "newobj",
					"text" : "prepend 2",
					"patching_rect" : [ 132.0, 220.0, 61.0, 19.0 ],
					"outlettype" : [ "" ],
					"id" : "obj-20",
					"fontname" : "Geneva",
					"fontsize" : 9.0,
					"numinlets" : 1,
					"numoutlets" : 1
				}

			}
, 			{
				"box" : 				{
					"maxclass" : "newobj",
					"text" : "prepend 3",
					"patching_rect" : [ 198.0, 220.0, 61.0, 19.0 ],
					"outlettype" : [ "" ],
					"id" : "obj-21",
					"fontname" : "Geneva",
					"fontsize" : 9.0,
					"numinlets" : 1,
					"numoutlets" : 1
				}

			}
, 			{
				"box" : 				{
					"maxclass" : "newobj",
					"text" : "prepend 4",
					"patching_rect" : [ 264.0, 220.0, 61.0, 19.0 ],
					"outlettype" : [ "" ],
					"id" : "obj-22",
					"fontname" : "Geneva",
					"fontsize" : 9.0,
					"numinlets" : 1,
					"numoutlets" : 1
				}

			}
 ],
		"lines" : [ 			{
				"patchline" : 				{
					"source" : [ "obj-18", 4 ],
					"destination" : [ "obj-13", 0 ],
					"hidden" : 0,
					"midpoints" : [  ]
				}

			}
, 			{
				"patchline" : 				{
					"source" : [ "obj-22", 0 ],
					"destination" : [ "obj-11", 0 ],
					"hidden" : 0,
					"midpoints" : [  ]
				}

			}
, 			{
				"patchline" : 				{
					"source" : [ "obj-18", 3 ],
					"destination" : [ "obj-22", 0 ],
					"hidden" : 0,
					"midpoints" : [  ]
				}

			}
, 			{
				"patchline" : 				{
					"source" : [ "obj-21", 0 ],
					"destination" : [ "obj-11", 0 ],
					"hidden" : 0,
					"midpoints" : [  ]
				}

			}
, 			{
				"patchline" : 				{
					"source" : [ "obj-18", 2 ],
					"destination" : [ "obj-21", 0 ],
					"hidden" : 0,
					"midpoints" : [  ]
				}

			}
, 			{
				"patchline" : 				{
					"source" : [ "obj-20", 0 ],
					"destination" : [ "obj-11", 0 ],
					"hidden" : 0,
					"midpoints" : [  ]
				}

			}
, 			{
				"patchline" : 				{
					"source" : [ "obj-18", 1 ],
					"destination" : [ "obj-20", 0 ],
					"hidden" : 0,
					"midpoints" : [  ]
				}

			}
, 			{
				"patchline" : 				{
					"source" : [ "obj-19", 0 ],
					"destination" : [ "obj-11", 0 ],
					"hidden" : 0,
					"midpoints" : [  ]
				}

			}
, 			{
				"patchline" : 				{
					"source" : [ "obj-18", 0 ],
					"destination" : [ "obj-19", 0 ],
					"hidden" : 0,
					"midpoints" : [  ]
				}

			}
, 			{
				"patchline" : 				{
					"source" : [ "obj-2", 0 ],
					"destination" : [ "obj-18", 0 ],
					"hidden" : 0,
					"midpoints" : [  ]
				}

			}
, 			{
				"patchline" : 				{
					"source" : [ "obj-7", 0 ],
					"destination" : [ "obj-14", 0 ],
					"hidden" : 0,
					"midpoints" : [  ]
				}

			}
, 			{
				"patchline" : 				{
					"source" : [ "obj-6", 1 ],
					"destination" : [ "obj-2", 1 ],
					"hidden" : 0,
					"midpoints" : [ 50.5, 90.0, 138.5, 90.0 ]
				}

			}
, 			{
				"patchline" : 				{
					"source" : [ "obj-1", 0 ],
					"destination" : [ "obj-2", 0 ],
					"hidden" : 0,
					"midpoints" : [  ]
				}

			}
, 			{
				"patchline" : 				{
					"source" : [ "obj-3", 2 ],
					"destination" : [ "obj-1", 0 ],
					"hidden" : 0,
					"midpoints" : [  ]
				}

			}
, 			{
				"patchline" : 				{
					"source" : [ "obj-11", 1 ],
					"destination" : [ "obj-9", 1 ],
					"hidden" : 0,
					"midpoints" : [  ]
				}

			}
, 			{
				"patchline" : 				{
					"source" : [ "obj-6", 1 ],
					"destination" : [ "obj-3", 0 ],
					"hidden" : 0,
					"midpoints" : [  ]
				}

			}
, 			{
				"patchline" : 				{
					"source" : [ "obj-8", 0 ],
					"destination" : [ "obj-9", 0 ],
					"hidden" : 0,
					"midpoints" : [  ]
				}

			}
, 			{
				"patchline" : 				{
					"source" : [ "obj-3", 3 ],
					"destination" : [ "obj-13", 0 ],
					"hidden" : 0,
					"midpoints" : [ 119.75, 145.0, 15.0, 145.0, 15.0, 411.0, 60.0, 411.0 ]
				}

			}
, 			{
				"patchline" : 				{
					"source" : [ "obj-4", 0 ],
					"destination" : [ "obj-13", 0 ],
					"hidden" : 0,
					"midpoints" : [ 19.5, 411.0, 60.0, 411.0 ]
				}

			}
, 			{
				"patchline" : 				{
					"source" : [ "obj-5", 0 ],
					"destination" : [ "obj-13", 0 ],
					"hidden" : 0,
					"midpoints" : [ 36.5, 138.0, 15.0, 138.0, 15.0, 411.0, 60.0, 411.0 ]
				}

			}
, 			{
				"patchline" : 				{
					"source" : [ "obj-9", 0 ],
					"destination" : [ "obj-13", 0 ],
					"hidden" : 0,
					"midpoints" : [  ]
				}

			}
, 			{
				"patchline" : 				{
					"source" : [ "obj-8", 1 ],
					"destination" : [ "obj-13", 0 ],
					"hidden" : 0,
					"midpoints" : [  ]
				}

			}
, 			{
				"patchline" : 				{
					"source" : [ "obj-10", 0 ],
					"destination" : [ "obj-8", 0 ],
					"hidden" : 0,
					"midpoints" : [  ]
				}

			}
, 			{
				"patchline" : 				{
					"source" : [ "obj-11", 0 ],
					"destination" : [ "obj-10", 0 ],
					"hidden" : 0,
					"midpoints" : [  ]
				}

			}
, 			{
				"patchline" : 				{
					"source" : [ "obj-4", 1 ],
					"destination" : [ "obj-5", 0 ],
					"hidden" : 0,
					"midpoints" : [  ]
				}

			}
, 			{
				"patchline" : 				{
					"source" : [ "obj-6", 0 ],
					"destination" : [ "obj-4", 0 ],
					"hidden" : 0,
					"midpoints" : [  ]
				}

			}
, 			{
				"patchline" : 				{
					"source" : [ "obj-12", 0 ],
					"destination" : [ "obj-6", 0 ],
					"hidden" : 0,
					"midpoints" : [  ]
				}

			}
 ]
	}

}
