{
	"patcher" : 	{
		"fileversion" : 1,
		"rect" : [ 25.0, 69.0, 354.0, 353.0 ],
		"bglocked" : 0,
		"defrect" : [ 25.0, 69.0, 354.0, 353.0 ],
		"openrect" : [ 0.0, 0.0, 0.0, 0.0 ],
		"openinpresentation" : 0,
		"default_fontsize" : 11.1,
		"default_fontface" : 0,
		"default_fontname" : "Verdana",
		"gridonopen" : 0,
		"gridsize" : [ 15.0, 15.0 ],
		"gridsnaponopen" : 0,
		"toolbarvisible" : 1,
		"boxanimatetime" : 200,
		"imprint" : 0,
		"metadata" : [  ],
		"boxes" : [ 			{
				"box" : 				{
					"maxclass" : "outlet",
					"numinlets" : 1,
					"patching_rect" : [ 61.0, 297.0, 25.0, 25.0 ],
					"numoutlets" : 0,
					"id" : "obj-41",
					"comment" : ""
				}

			}
, 			{
				"box" : 				{
					"maxclass" : "newobj",
					"text" : "prepend transport",
					"fontname" : "Verdana",
					"numinlets" : 1,
					"patching_rect" : [ 148.0, 134.0, 111.0, 20.0 ],
					"fontsize" : 11.1,
					"numoutlets" : 1,
					"id" : "obj-39",
					"outlettype" : [ "" ]
				}

			}
, 			{
				"box" : 				{
					"maxclass" : "inlet",
					"numinlets" : 0,
					"patching_rect" : [ 43.0, 18.0, 25.0, 25.0 ],
					"numoutlets" : 1,
					"id" : "obj-36",
					"outlettype" : [ "" ],
					"comment" : ""
				}

			}
, 			{
				"box" : 				{
					"maxclass" : "newobj",
					"text" : "route transport",
					"fontname" : "Verdana",
					"numinlets" : 1,
					"patching_rect" : [ 148.0, 77.0, 95.0, 20.0 ],
					"fontsize" : 11.1,
					"numoutlets" : 2,
					"id" : "obj-32",
					"outlettype" : [ "", "" ]
				}

			}
, 			{
				"box" : 				{
					"maxclass" : "newobj",
					"text" : "patcherargs",
					"fontname" : "Verdana",
					"numinlets" : 1,
					"patching_rect" : [ 90.0, 22.0, 77.0, 20.0 ],
					"fontsize" : 11.1,
					"numoutlets" : 2,
					"id" : "obj-31",
					"outlettype" : [ "", "" ]
				}

			}
, 			{
				"box" : 				{
					"maxclass" : "newobj",
					"text" : "route int float",
					"fontname" : "Verdana",
					"numinlets" : 1,
					"patching_rect" : [ 61.0, 202.0, 87.0, 20.0 ],
					"fontsize" : 11.1,
					"numoutlets" : 3,
					"id" : "obj-30",
					"outlettype" : [ "", "", "" ]
				}

			}
, 			{
				"box" : 				{
					"maxclass" : "newobj",
					"text" : "t b l",
					"fontname" : "Verdana",
					"numinlets" : 1,
					"patching_rect" : [ 47.0, 148.0, 33.0, 20.0 ],
					"fontsize" : 11.1,
					"numoutlets" : 2,
					"id" : "obj-13",
					"outlettype" : [ "bang", "" ]
				}

			}
, 			{
				"box" : 				{
					"maxclass" : "newobj",
					"text" : "zl group 1024",
					"fontname" : "Verdana",
					"presentation_rect" : [ 259.0, 330.0, 0.0, 0.0 ],
					"numinlets" : 2,
					"patching_rect" : [ 61.0, 266.0, 88.0, 20.0 ],
					"fontsize" : 11.1,
					"numoutlets" : 2,
					"id" : "obj-12",
					"outlettype" : [ "", "" ]
				}

			}
, 			{
				"box" : 				{
					"maxclass" : "newobj",
					"text" : "zl iter 1",
					"fontname" : "Verdana",
					"numinlets" : 2,
					"patching_rect" : [ 61.0, 175.0, 53.0, 20.0 ],
					"fontsize" : 11.1,
					"numoutlets" : 2,
					"id" : "obj-2",
					"outlettype" : [ "", "" ]
				}

			}
, 			{
				"box" : 				{
					"maxclass" : "newobj",
					"text" : "translate @in notevalues @out ms",
					"fontname" : "Verdana",
					"numinlets" : 1,
					"patching_rect" : [ 129.0, 232.0, 203.0, 20.0 ],
					"fontsize" : 11.1,
					"numoutlets" : 1,
					"id" : "obj-1",
					"outlettype" : [ "" ]
				}

			}
 ],
		"lines" : [ 			{
				"patchline" : 				{
					"source" : [ "obj-12", 0 ],
					"destination" : [ "obj-41", 0 ],
					"hidden" : 0,
					"midpoints" : [  ]
				}

			}
, 			{
				"patchline" : 				{
					"source" : [ "obj-39", 0 ],
					"destination" : [ "obj-1", 0 ],
					"hidden" : 0,
					"midpoints" : [ 157.5, 226.0, 138.5, 226.0 ]
				}

			}
, 			{
				"patchline" : 				{
					"source" : [ "obj-32", 0 ],
					"destination" : [ "obj-39", 0 ],
					"hidden" : 0,
					"midpoints" : [  ]
				}

			}
, 			{
				"patchline" : 				{
					"source" : [ "obj-32", 1 ],
					"destination" : [ "obj-13", 0 ],
					"hidden" : 0,
					"midpoints" : [  ]
				}

			}
, 			{
				"patchline" : 				{
					"source" : [ "obj-36", 0 ],
					"destination" : [ "obj-32", 0 ],
					"hidden" : 0,
					"midpoints" : [ 52.5, 66.0, 157.5, 66.0 ]
				}

			}
, 			{
				"patchline" : 				{
					"source" : [ "obj-31", 1 ],
					"destination" : [ "obj-32", 0 ],
					"hidden" : 0,
					"midpoints" : [  ]
				}

			}
, 			{
				"patchline" : 				{
					"source" : [ "obj-30", 1 ],
					"destination" : [ "obj-12", 0 ],
					"hidden" : 0,
					"midpoints" : [ 104.5, 259.0, 70.5, 259.0 ]
				}

			}
, 			{
				"patchline" : 				{
					"source" : [ "obj-30", 0 ],
					"destination" : [ "obj-12", 0 ],
					"hidden" : 0,
					"midpoints" : [  ]
				}

			}
, 			{
				"patchline" : 				{
					"source" : [ "obj-30", 2 ],
					"destination" : [ "obj-1", 0 ],
					"hidden" : 0,
					"midpoints" : [  ]
				}

			}
, 			{
				"patchline" : 				{
					"source" : [ "obj-2", 0 ],
					"destination" : [ "obj-30", 0 ],
					"hidden" : 0,
					"midpoints" : [  ]
				}

			}
, 			{
				"patchline" : 				{
					"source" : [ "obj-13", 1 ],
					"destination" : [ "obj-2", 0 ],
					"hidden" : 0,
					"midpoints" : [  ]
				}

			}
, 			{
				"patchline" : 				{
					"source" : [ "obj-13", 0 ],
					"destination" : [ "obj-12", 0 ],
					"hidden" : 0,
					"midpoints" : [ 56.5, 259.0, 70.5, 259.0 ]
				}

			}
, 			{
				"patchline" : 				{
					"source" : [ "obj-1", 0 ],
					"destination" : [ "obj-12", 0 ],
					"hidden" : 0,
					"midpoints" : [ 138.5, 259.0, 70.5, 259.0 ]
				}

			}
 ]
	}

}
