{
	"patcher" : 	{
		"fileversion" : 1,
		"rect" : [ 473.0, 217.0, 380.0, 348.0 ],
		"bglocked" : 0,
		"defrect" : [ 473.0, 217.0, 380.0, 348.0 ],
		"openrect" : [ 0.0, 0.0, 0.0, 0.0 ],
		"openinpresentation" : 1,
		"default_fontsize" : 11.1,
		"default_fontface" : 0,
		"default_fontname" : "Verdana",
		"gridonopen" : 0,
		"gridsize" : [ 15.0, 15.0 ],
		"gridsnaponopen" : 0,
		"toolbarvisible" : 1,
		"boxanimatetime" : 200,
		"imprint" : 0,
		"metadata" : [  ],
		"boxes" : [ 			{
				"box" : 				{
					"maxclass" : "newobj",
					"text" : "prepend bgcolor",
					"fontname" : "Verdana",
					"numinlets" : 1,
					"patching_rect" : [ 76.0, 57.0, 101.0, 20.0 ],
					"fontsize" : 11.1,
					"numoutlets" : 1,
					"id" : "obj-10",
					"outlettype" : [ "" ]
				}

			}
, 			{
				"box" : 				{
					"maxclass" : "newobj",
					"text" : "route bgcolor",
					"fontname" : "Verdana",
					"numinlets" : 1,
					"patching_rect" : [ 76.0, 30.0, 85.0, 20.0 ],
					"fontsize" : 11.1,
					"numoutlets" : 2,
					"id" : "obj-9",
					"outlettype" : [ "", "" ]
				}

			}
, 			{
				"box" : 				{
					"maxclass" : "newobj",
					"text" : "patcherargs",
					"fontname" : "Verdana",
					"numinlets" : 1,
					"patching_rect" : [ 18.0, 4.0, 77.0, 20.0 ],
					"fontsize" : 11.1,
					"numoutlets" : 2,
					"id" : "obj-7",
					"outlettype" : [ "", "" ]
				}

			}
, 			{
				"box" : 				{
					"maxclass" : "message",
					"text" : "#1",
					"fontname" : "Verdana",
					"presentation_rect" : [ 0.0, 0.0, 32.5, 18.0 ],
					"numinlets" : 2,
					"patching_rect" : [ 18.0, 98.0, 32.5, 18.0 ],
					"fontsize" : 11.1,
					"presentation" : 1,
					"numoutlets" : 1,
					"id" : "obj-5",
					"outlettype" : [ "" ]
				}

			}
, 			{
				"box" : 				{
					"maxclass" : "message",
					"text" : "help #1",
					"fontname" : "Verdana",
					"numinlets" : 2,
					"patching_rect" : [ 151.0, 283.0, 54.0, 18.0 ],
					"fontsize" : 11.1,
					"numoutlets" : 1,
					"id" : "obj-6",
					"outlettype" : [ "" ]
				}

			}
, 			{
				"box" : 				{
					"maxclass" : "newobj",
					"text" : "t 0",
					"fontname" : "Verdana",
					"numinlets" : 1,
					"patching_rect" : [ 151.0, 215.0, 26.0, 20.0 ],
					"fontsize" : 11.1,
					"numoutlets" : 1,
					"id" : "obj-20",
					"outlettype" : [ "int" ]
				}

			}
, 			{
				"box" : 				{
					"maxclass" : "newobj",
					"text" : "t b b 1",
					"fontname" : "Verdana",
					"numinlets" : 1,
					"patching_rect" : [ 18.0, 131.0, 329.0, 20.0 ],
					"fontsize" : 11.1,
					"numoutlets" : 3,
					"id" : "obj-19",
					"outlettype" : [ "bang", "bang", "int" ]
				}

			}
, 			{
				"box" : 				{
					"maxclass" : "newobj",
					"text" : "gate",
					"fontname" : "Verdana",
					"numinlets" : 2,
					"patching_rect" : [ 151.0, 258.0, 35.0, 20.0 ],
					"fontsize" : 11.1,
					"numoutlets" : 1,
					"id" : "obj-18",
					"outlettype" : [ "" ]
				}

			}
, 			{
				"box" : 				{
					"maxclass" : "newobj",
					"text" : "s #1.bring_to_front",
					"fontname" : "Verdana",
					"numinlets" : 1,
					"patching_rect" : [ 108.0, 161.0, 121.0, 20.0 ],
					"fontsize" : 11.1,
					"numoutlets" : 0,
					"id" : "obj-15"
				}

			}
, 			{
				"box" : 				{
					"maxclass" : "newobj",
					"text" : "pcontrol",
					"fontname" : "Verdana",
					"numinlets" : 1,
					"patching_rect" : [ 151.0, 309.0, 56.0, 20.0 ],
					"fontsize" : 11.1,
					"numoutlets" : 1,
					"id" : "obj-14",
					"outlettype" : [ "" ]
				}

			}
, 			{
				"box" : 				{
					"maxclass" : "newobj",
					"text" : "r ajm.bring_to_front_callback",
					"fontname" : "Verdana",
					"numinlets" : 0,
					"patching_rect" : [ 151.0, 187.0, 177.0, 20.0 ],
					"fontsize" : 11.1,
					"numoutlets" : 1,
					"id" : "obj-13",
					"outlettype" : [ "" ]
				}

			}
 ],
		"lines" : [ 			{
				"patchline" : 				{
					"source" : [ "obj-10", 0 ],
					"destination" : [ "obj-5", 0 ],
					"hidden" : 0,
					"midpoints" : [ 85.5, 85.0, 27.5, 85.0 ]
				}

			}
, 			{
				"patchline" : 				{
					"source" : [ "obj-9", 0 ],
					"destination" : [ "obj-10", 0 ],
					"hidden" : 0,
					"midpoints" : [  ]
				}

			}
, 			{
				"patchline" : 				{
					"source" : [ "obj-7", 1 ],
					"destination" : [ "obj-9", 0 ],
					"hidden" : 0,
					"midpoints" : [  ]
				}

			}
, 			{
				"patchline" : 				{
					"source" : [ "obj-5", 0 ],
					"destination" : [ "obj-19", 0 ],
					"hidden" : 0,
					"midpoints" : [  ]
				}

			}
, 			{
				"patchline" : 				{
					"source" : [ "obj-19", 2 ],
					"destination" : [ "obj-18", 0 ],
					"hidden" : 0,
					"midpoints" : [ 337.5, 240.0, 160.5, 240.0 ]
				}

			}
, 			{
				"patchline" : 				{
					"source" : [ "obj-20", 0 ],
					"destination" : [ "obj-18", 0 ],
					"hidden" : 0,
					"midpoints" : [  ]
				}

			}
, 			{
				"patchline" : 				{
					"source" : [ "obj-19", 0 ],
					"destination" : [ "obj-18", 1 ],
					"hidden" : 0,
					"midpoints" : [  ]
				}

			}
, 			{
				"patchline" : 				{
					"source" : [ "obj-19", 1 ],
					"destination" : [ "obj-15", 0 ],
					"hidden" : 0,
					"midpoints" : [ 182.5, 157.0, 117.5, 157.0 ]
				}

			}
, 			{
				"patchline" : 				{
					"source" : [ "obj-13", 0 ],
					"destination" : [ "obj-20", 0 ],
					"hidden" : 0,
					"midpoints" : [  ]
				}

			}
, 			{
				"patchline" : 				{
					"source" : [ "obj-18", 0 ],
					"destination" : [ "obj-6", 0 ],
					"hidden" : 0,
					"midpoints" : [  ]
				}

			}
, 			{
				"patchline" : 				{
					"source" : [ "obj-6", 0 ],
					"destination" : [ "obj-14", 0 ],
					"hidden" : 0,
					"midpoints" : [  ]
				}

			}
 ]
	}

}
